<svg width="24" height="24" viewBox="0 0 24 24" fill="none" xmlns="http://www.w3.org/2000/svg">
<path fill-rule="evenodd" clip-rule="evenodd" d="M20.7499 11.9998C20.7499 11.5855 20.4141 11.2498 19.9999 11.2498H3.9999C3.58569 11.2498 3.2499 11.5855 3.2499 11.9998C3.2499 12.414 3.58569 12.7498 3.9999 12.7498H19.9999C20.4141 12.7498 20.7499 12.414 20.7499 11.9998Z" fill="white"/>
<path fill-rule="evenodd" clip-rule="evenodd" d="M9.6037 6.55529C9.35807 6.22177 8.88857 6.15052 8.55505 6.39615L8.99981 7.00005C8.55505 6.39615 8.55514 6.39609 8.55505 6.39615L8.55061 6.39943L8.53905 6.40798L8.49548 6.44036C8.45765 6.46855 8.40266 6.50972 8.33293 6.56238C8.19353 6.66767 7.99505 6.81908 7.75714 7.00475C7.2821 7.37546 6.6462 7.8856 6.0081 8.43962C5.37373 8.99041 4.72002 9.59932 4.21902 10.1663C3.96928 10.449 3.74162 10.7389 3.57234 11.0197C3.41547 11.2799 3.24981 11.6265 3.24981 12C3.24981 12.3736 3.41546 12.7202 3.57233 12.9804C3.74161 13.2612 3.96926 13.5511 4.219 13.8338C4.71999 14.4008 5.37368 15.0097 6.00804 15.5605C6.64613 16.1145 7.28202 16.6246 7.75705 16.9953C7.99495 17.181 8.19343 17.3324 8.33283 17.4377C8.40255 17.4904 8.45755 17.5315 8.49537 17.5597L8.53894 17.5921L8.55451 17.6036C8.5546 17.6037 8.55494 17.6039 8.99971 17L8.55451 17.6036C8.88803 17.8493 9.35796 17.7783 9.6036 17.4448C9.84922 17.1113 9.778 16.6418 9.44451 16.3962C9.4445 16.3962 9.44453 16.3962 9.44451 16.3962L9.44166 16.3941L9.43179 16.3868L9.39174 16.357C9.35632 16.3306 9.3039 16.2914 9.2369 16.2408C9.10287 16.1395 8.91073 15.993 8.6799 15.8128C8.21744 15.4519 7.60336 14.9591 6.99147 14.4278C6.37586 13.8933 5.77957 13.3346 5.34308 12.8406C5.12408 12.5927 4.96111 12.3788 4.85696 12.206C4.78903 12.0933 4.76388 12.027 4.75472 12.0001C4.76388 11.9731 4.78903 11.9068 4.85696 11.7941C4.96112 11.6214 5.12409 11.4074 5.34309 11.1595C5.77959 10.6655 6.37589 10.1068 6.99151 9.57227C7.60341 9.041 8.21751 8.54818 8.67998 8.18727C8.91082 8.00713 9.10296 7.86056 9.23699 7.75932C9.30399 7.70872 9.35641 7.66949 9.39183 7.64309L9.43188 7.61332L9.44176 7.60602L9.44406 7.60432" fill="white"/>
</svg>
