<svg width="24" height="24" viewBox="0 0 24 24" fill="none" xmlns="http://www.w3.org/2000/svg">
<path fill-rule="evenodd" clip-rule="evenodd" d="M12 2.75C17.1086 2.75 21.25 6.89136 21.25 12C21.25 17.1086 17.1086 21.25 12 21.25C6.89141 21.25 2.75 17.1086 2.75 12C2.75 11.5858 2.41421 11.25 2 11.25C1.58579 11.25 1.25 11.5858 1.25 12C1.25 17.937 6.06299 22.75 12 22.75C17.9371 22.75 22.75 17.937 22.75 12C22.75 6.06294 17.9371 1.25 12 1.25C9.20625 1.25 6.66099 2.31639 4.75 4.06269V2.5C4.75 2.08579 4.41421 1.75 4 1.75C3.58579 1.75 3.25 2.08579 3.25 2.5V6C3.25 6.41421 3.58579 6.75 4 6.75H7.5C7.91421 6.75 8.25 6.41421 8.25 6C8.25 5.58579 7.91421 5.25 7.5 5.25H5.67535C7.33013 3.69872 9.55397 2.75 12 2.75Z" fill="white"/>
</svg>
